HIERARCHY
ROOT Hips
{
	OFFSET 0.000000 0.000000 0.000000
	CHANNELS 6 Xposition Yposition Zposition Zrotation Yrotation Xrotation 
	JOINT LHipJoint
	{
		OFFSET 0.000000 0.000000 0.000000
		CHANNELS 3 Zrotation Yrotation Xrotation
		JOINT LeftUpLeg
		{
			OFFSET 1.363060 -1.794630 0.839290
			CHANNELS 3 Zrotation Yrotation Xrotation
			JOINT LeftLeg
			{
				OFFSET 2.448110 -6.726130 0.000000
				CHANNELS 3 Zrotation Yrotation Xrotation
				JOINT LeftFoot
				{
					OFFSET 2.562200 -7.039590 0.000000
					CHANNELS 3 Zrotation Yrotation Xrotation
					JOINT LeftToeBase
					{
						OFFSET 0.157640 -0.433110 2.322550
						CHANNELS 3 Zrotation Yrotation Xrotation
						End Site
						{
							OFFSET 0.000000 0.000000 0.000000
						}
					}
				}
			}
		}
	}
	JOINT RHipJoint
	{
		OFFSET 0.000000 0.000000 0.000000
		CHANNELS 3 Zrotation Yrotation Xrotation
		JOINT RightUpLeg
		{
			OFFSET -1.305520 -1.794630 0.839290
			CHANNELS 3 Zrotation Yrotation Xrotation
			JOINT RightLeg
			{
				OFFSET -2.542530 -6.985550 0.000000
				CHANNELS 3 Zrotation Yrotation Xrotation
				JOINT RightFoot
				{
					OFFSET -2.568260 -7.056230 0.000000
					CHANNELS 3 Zrotation Yrotation Xrotation
					JOINT RightToeBase
					{
						OFFSET -0.164730 -0.452590 2.363150
						CHANNELS 3 Zrotation Yrotation Xrotation
						End Site
						{
							OFFSET 0.000000 0.000000 0.000000
						}
					}
				}
			}
		}
	}
}
MOTION
Frames: 11
Frame Time: 0.008333
10.454047 15.566804 -0.997042 -167.733184 72.979880 -151.629271 -14.157607 2.657676 0.316775 -2.530558 4.835911 -37.466038 5.447109 6.209141 106.074112 2.821546 17.484943 -17.299297 -2.608600 -0.000000 -9.063200 9.263966 -1.525653 4.031636 6.290715 5.162248 -35.167624 1.892433 -2.750194 54.152043 -1.200910 3.459663 -30.307603 -0.033000 -0.000000 -62.634100
10.605120 15.647046 -1.050838 -169.063457 72.546620 -153.062821 -13.982303 2.460711 0.302824 -3.213695 5.087830 -39.017861 5.347539 6.165702 105.771709 2.752246 16.979868 -17.230907 -2.518400 -0.000000 -9.209099 9.343901 -1.606301 3.971297 5.954145 4.721794 -33.419697 1.952739 -2.573261 52.350888 -1.229068 3.172802 -29.982065 0.071400 -0.000000 -62.258200
10.758678 15.741977 -1.112627 -170.279147 72.173061 -154.373074 -13.791371 2.280582 0.283004 -3.953554 5.403680 -40.505666 5.201895 6.111131 105.200474 2.679678 16.456031 -17.098284 -2.411700 -0.000000 -9.429300 9.417252 -1.692401 3.927516 5.564154 4.321199 -31.573751 2.003764 -2.376928 50.276475 -1.219542 2.954756 -29.317046 0.141700 0.000000 -62.070599
10.914799 15.851837 -1.183117 -171.401370 71.861639 -155.593220 -13.586377 2.120622 0.253974 -4.746987 5.771453 -41.883187 5.009715 6.044008 104.336309 2.609476 15.949235 -16.889373 -2.292100 0.000000 -9.720600 9.486815 -1.785913 3.892415 5.115936 3.955643 -29.613335 2.040621 -2.165226 47.925801 -1.162988 2.826526 -28.238443 0.167400 -0.000000 -62.242500
11.073593 15.976541 -1.262785 -172.450331 71.611983 -156.754712 -13.369917 1.983863 0.213738 -5.586917 6.179433 -43.106858 4.772005 5.962934 103.159078 2.546884 15.493140 -16.597237 -2.164000 0.000000 -10.066700 9.555197 -1.889400 3.859057 4.607227 3.619950 -27.527090 2.058299 -1.943467 45.298685 -1.052939 2.803344 -26.673979 0.145000 -0.000001 -62.928300
11.235353 16.115520 -1.351814 -173.443045 71.421839 -157.882537 -13.145332 1.872956 0.162280 -6.462931 6.617231 -44.140054 4.491743 5.866734 101.656661 2.496140 15.115316 -16.221436 -2.031300 -0.000000 -10.437701 9.624851 -2.006105 3.822619 4.039199 3.309467 -25.313524 2.051948 -1.718549 42.402292 -0.887737 2.892329 -24.559988 0.080900 0.000000 -64.235400
11.400324 16.267702 -1.450133 -174.390974 71.286761 -158.992808 -12.916314 1.789348 0.101817 -7.361595 7.075038 -44.957947 4.174395 5.754604 99.828446 2.459981 14.834208 -15.763762 -1.896400 0.000001 -10.807500 9.697940 -2.139701 3.780654 3.416981 3.020554 -22.984310 2.017532 -1.499099 39.254031 -0.672088 3.091451 -21.846922 -0.006400 0.000000 -66.203800
11.568794 16.431437 -1.557470 -175.299079 71.202089 -160.090018 -12.686116 1.733249 0.037338 -8.268651 7.543941 -45.550876 3.826385 5.625729 97.679156 2.439474 14.657458 -15.228501 -1.759300 0.000000 -11.152200 9.776145 -2.293913 3.733594 2.749101 2.751287 -20.567170 1.952729 -1.295134 35.887112 -0.417925 3.391431 -18.507564 -0.086600 -0.000001 -68.776700
11.741023 16.604478 -1.673314 -176.167222 71.162455 -161.168366 -12.457535 1.703502 -0.024059 -9.170630 8.014928 -45.925112 3.456150 5.479702 95.227517 2.434048 14.581915 -14.619435 -1.617500 -0.000000 -11.457499 9.860699 -2.471857 3.684087 2.046447 2.498678 -18.106574 1.858273 -1.117228 32.354129 -0.143927 3.780830 -14.545985 -0.119600 0.000000 -71.799800
11.917147 16.784283 -1.796981 -176.996818 71.161586 -162.219356 -12.232122 1.697796 -0.073940 -10.058642 8.477872 -46.100208 3.072274 5.315949 92.496464 2.441650 14.594542 -13.935207 -1.465600 -0.000000 -11.734700 9.952536 -2.674476 3.635623 1.318780 2.256393 -15.660278 1.738444 -0.974749 28.727219 0.126267 4.250614 -10.004400 -0.060000 -0.000001 -75.018600
12.097182 16.968017 -1.927604 -177.793415 71.193007 -163.235529 -12.010373 1.713089 -0.103181 -10.929202 8.920230 -46.105721 2.683192 5.133849 89.512458 2.458972 14.673848 -13.169229 -1.296000 0.000001 -12.015400 10.052428 -2.899127 3.591175 0.572977 2.010053 -13.296658 1.600953 -0.873807 25.099681 0.367422 4.800895 -4.972752 0.137700 0.000000 -78.111900
